# xmcd CD database file
#
# Track frame offsets:
#	150
#	22802
#	42525
#	61882
#
# Disc length: 1124 seconds
#
# Revision: 1
# Processed by: cddbd v1.5PL3 Copyright (c) Steve Scherf et al.
# Submitted via: CDex 1.50
#
DISCID=2a046204
DTITLE=aiko - かばん
DYEAR=2004
DGENRE=Pop
TTITLE0=かばん
TTITLE1=猫
TTITLE2=テレビゲーム
TTITLE3=かばん（instrumental）
EXTD=YEAR: 2004
EXTT0=
EXTT1=
EXTT2=
EXTT3=
PLAYORDER=
